<svg xmlns="http://www.w3.org/2000/svg" width="848.997" height="692.224"><defs><clipPath id="clip-path"><path id="Path_15742" data-name="Path 15742" d="M699.745 784.1h-18.012c-2.291-.318-4.573-.785-6.874-.929-17.651-1.1-34.875-4.248-51.258-11.06-26.067-10.838-44.858-28.621-52.559-56.466-5.458-19.735-3.868-39.418 1.732-58.852 10.155-35.247 30.607-64.055 56.533-89.387 1.057-1.035 2.012-2.175 3.1-3.359a13.34 13.34 0 00-1.381-.907 96.155 96.155 0 00-3.232-1.366c-26.407-10.694-51.924-23.037-74.376-40.873-15.73-12.5-29.052-26.99-35.806-46.363-1.945-5.58-2.863-11.518-4.253-17.292V446.3a11.722 11.722 0 00.875-2.526 75.632 75.632 0 019.889-29.763c15.234-26.722 37.793-45.376 65.154-58.772 16.1-7.879 32.4-8.358 49.278-2.8 22.637 7.451 42.613 19.435 60.558 34.88 15.473 13.315 28.745 28.347 35.384 48.184.046.139.446.161.768.267a3.263 3.263 0 00.607-.879c2.093-7.372 4.305-14.716 6.211-22.136 17.064-66.444 57.364-112.738 121.091-138.248 20.624-8.255 42.3-11.1 64.4-6.663 29.1 5.843 48.858 23.357 60.936 49.926 10.9 23.981 13.268 49.516 13.026 75.448-.03 3.417 1.686 4.8 4.823 3.461a30.763 30.763 0 002.756-1.471c24.105-13.387 49.694-22.208 77.379-23.592 27.205-1.357 53.042 4.5 76.251 18.843 53.318 32.939 79.885 82.757 88.876 143.276.7 4.725 1.2 9.48 1.793 14.22v17.986a15.647 15.647 0 00-.816 3.344c-.346 15.63-7.05 28.634-16.881 40.229-14.394 16.979-32.511 28.7-53.122 36.794-16.483 6.47-33.361 8.575-50.958 5.6-15.221-2.574-29.813-7.157-44.29-12.286-14.712-5.212-29.28-10.914-44.208-15.417-15.1-4.553-24.351.078-31.366 14.122a86.129 86.129 0 00-3.731 8.58c-3.7 10-7 20.152-11 30.024-6.42 15.828-15.721 29.683-31.534 37.427-24.536 12.021-49.874 13.3-75.193 2.6-23.955-10.122-42.4-27.159-57.547-47.984-2.837-3.9-4.122-4.159-7.67-.909a25.838 25.838 0 00-4.7 5.7c-2.6 4.355-5.056 8.81-7.268 13.372-8.014 16.518-15.858 33.111-26.65 48.106-17.973 24.971-41.393 41.5-72.157 46.724-4.837.816-9.717 1.427-14.578 2.133z" transform="rotate(-14.98 6360.842 4183.732)" fill="#fac356"/></clipPath></defs><g id="Mask_Group_54" data-name="Mask Group 54" transform="translate(302.667 -1722)" clip-path="url(#clip-path)" fill="#fac356"><ellipse id="Ellipse_66" data-name="Ellipse 66" cx="1111" cy="305.5" rx="1111" ry="305.5" transform="translate(-495 1851)"/><path id="Path_15743" data-name="Path 15743" d="M699.745 784.1h-18.012c-2.291-.318-4.573-.785-6.874-.929-17.651-1.1-34.875-4.248-51.258-11.06-26.067-10.838-44.858-28.621-52.559-56.466-5.458-19.735-3.868-39.418 1.732-58.852 10.155-35.247 30.607-64.055 56.533-89.387 1.057-1.035 2.012-2.175 3.1-3.359a13.34 13.34 0 00-1.381-.907 96.155 96.155 0 00-3.232-1.366c-26.407-10.694-51.924-23.037-74.376-40.873-15.73-12.5-29.052-26.99-35.806-46.363-1.945-5.58-2.863-11.518-4.253-17.292V446.3a11.722 11.722 0 00.875-2.526 75.632 75.632 0 019.889-29.763c15.234-26.722 37.793-45.376 65.154-58.772 16.1-7.879 32.4-8.358 49.278-2.8 22.637 7.451 42.613 19.435 60.558 34.88 15.473 13.315 28.745 28.347 35.384 48.184.046.139.446.161.768.267a3.263 3.263 0 00.607-.879c2.093-7.372 4.305-14.716 6.211-22.136 17.064-66.444 57.364-112.738 121.091-138.248 20.624-8.255 42.3-11.1 64.4-6.663 29.1 5.843 48.858 23.357 60.936 49.926 10.9 23.981 13.268 49.516 13.026 75.448-.03 3.417 1.686 4.8 4.823 3.461a30.763 30.763 0 002.756-1.471c24.105-13.387 49.694-22.208 77.379-23.592 27.205-1.357 53.042 4.5 76.251 18.843 53.318 32.939 79.885 82.757 88.876 143.276.7 4.725 1.2 9.48 1.793 14.22v17.986a15.647 15.647 0 00-.816 3.344c-.346 15.63-7.05 28.634-16.881 40.229-14.394 16.979-32.511 28.7-53.122 36.794-16.483 6.47-33.361 8.575-50.958 5.6-15.221-2.574-29.813-7.157-44.29-12.286-14.712-5.212-29.28-10.914-44.208-15.417-15.1-4.553-24.351.078-31.366 14.122a86.129 86.129 0 00-3.731 8.58c-3.7 10-7 20.152-11 30.024-6.42 15.828-15.721 29.683-31.534 37.427-24.536 12.021-49.874 13.3-75.193 2.6-23.955-10.122-42.4-27.159-57.547-47.984-2.837-3.9-4.122-4.159-7.67-.909a25.838 25.838 0 00-4.7 5.7c-2.6 4.355-5.056 8.81-7.268 13.372-8.014 16.518-15.858 33.111-26.65 48.106-17.973 24.971-41.393 41.5-72.157 46.724-4.837.816-9.717 1.427-14.578 2.133z" transform="rotate(-14.98 6709.817 -504.047)"/></g></svg>