<svg id="Layer_1" data-name="Layer 1" xmlns="http://www.w3.org/2000/svg" viewBox="0 0 456.65 326.943"><defs><clipPath id="clip-path"><path fill="none" d="M0 0h1366v452H0z"/></clipPath></defs><g clip-path="url(#clip-path)"><g id="Group_2345" data-name="Group 2345"><path id="Path_15828" data-name="Path 15828" d="M-855.445-212.901c270.434-12.6 663 45.823 890.679 114.557S434.75 47.716 430.454 94.97s-38.663 25.776-38.663 25.776 85.918 42.958 55.847 98.8-60.143 17.183-60.143 17.183 0 30.071-34.367 38.663-77.325-34.367-77.325-34.367 21.479 73.03-38.663 85.918-128.877-77.326-128.877-77.326 0 60.142-77.325 55.846S-209.88 173.637-471.68 159.409c-395.22-21.48-524.1 32.219-648.677 21.479-46.1-3.974-68.734-30.071-42.959-77.326 0 0-51.55 17.184-85.917-4.3s-21.48-64.438-21.48-64.438-107.4 25.775-150.355-25.775 42.958-197.606 565.623-221.95" fill="#574c7d"/></g></g></svg>