<svg id="Layer_1" data-name="Layer 1" xmlns="http://www.w3.org/2000/svg" viewBox="0 0 386 295.638"><defs><clipPath id="clip-path"><path fill="none" d="M-980 0H386v452H-980z"/></clipPath></defs><g clip-path="url(#clip-path)"><g id="Group_2342" data-name="Group 2342" fill="#574c7d"><path id="Path_15823" data-name="Path 15823" d="M1123.93-262.161c-232.118-10.811-569.058 39.33-764.479 98.323S16.542-38.471 20.23 2.088s33.184 22.123 33.184 22.123S-20.33 61.083 5.48 109.017s51.621 14.745 51.621 14.745 0 25.81 29.5 33.184 66.37-29.5 66.37-29.5-18.436 62.682 33.184 73.744 110.616-66.37 110.616-66.37 0 51.621 66.37 47.934 206.693-113.153 431.4-125.365c339.222-18.436 449.838 27.654 556.767 18.436 39.566-3.411 58.995-25.81 36.872-66.369 0 0 44.246 14.748 73.743-3.688s18.436-55.308 18.436-55.308 92.18 22.124 129.052-22.123-36.872-169.611-485.48-190.5"/><path id="Path_15824" data-name="Path 15824" d="M138.611 153.799c-7.2-4.68-33.255 13.464-36.722 33.794s4.227 39.335 17.724 38.634 23.3-17.258 19.048-33.955 1.444-25.919 2.358-29.649.536-6.911-2.408-8.824"/><path id="Path_15825" data-name="Path 15825" d="M1591.945-261.917c-270.434-12.6-663 45.823-890.679 114.557S301.75-1.3 306.046 45.954 344.71 71.73 344.71 71.73s-85.918 42.958-55.847 98.8 60.143 17.183 60.143 17.183 0 30.071 34.367 38.663 77.325-34.367 77.325-34.367-21.479 73.03 38.663 85.918 128.877-77.326 128.877-77.326 0 60.142 77.325 55.846 240.815-131.831 502.618-146.059c395.22-21.48 524.1 32.219 648.677 21.479 46.1-3.974 68.734-30.071 42.96-77.326 0 0 51.55 17.184 85.916-4.3s21.48-64.438 21.48-64.438 107.4 25.775 150.355-25.775-42.958-197.601-565.623-221.945"/><path id="Path_15826" data-name="Path 15826" d="M286.574 195.844c-8.6-7.164-45.1 12.3-52.716 38.073s-.586 51.545 16.986 52.716 32.8-18.743 29.873-41 5.857-33.314 7.614-38 1.757-8.859-1.757-11.788"/></g></g></svg>