<svg id="calendar_1_" data-name="calendar (1)" xmlns="http://www.w3.org/2000/svg" width="17.129" height="17.129"><path id="Path_825" data-name="Path 825" d="M14.921 1.338h-1.539v-.8a.535.535 0 00-1.071 0v.8H4.818v-.8a.535.535 0 00-1.071 0v.8H2.208A2.211 2.211 0 000 3.546v11.375a2.211 2.211 0 002.208 2.208h12.713a2.211 2.211 0 002.208-2.208V3.546a2.211 2.211 0 00-2.208-2.208zM2.208 2.409h1.539v.535a.535.535 0 001.071 0v-.535h7.494v.535a.535.535 0 001.071 0v-.535h1.539a1.139 1.139 0 011.137 1.137v1.272H1.071V3.546a1.139 1.139 0 011.137-1.137zm12.713 13.65H2.208a1.139 1.139 0 01-1.137-1.137V5.888h14.987v9.033a1.139 1.139 0 01-1.137 1.137z" fill="#2b2171"/></svg>