<svg id="clock" xmlns="http://www.w3.org/2000/svg" width="16.888" height="17.129"><g id="Group_1596" data-name="Group 1596" transform="translate(7.994 4.268)"><g id="Group_1595" data-name="Group 1595"><path id="Path_826" data-name="Path 826" d="M239.514 124.274l-2.15-1.613v-3.285a.6.6 0 10-1.195 0v3.584a.6.6 0 00.239.478l2.389 1.792a.6.6 0 00.717-.956z" transform="translate(-236.169 -118.779)" fill="#2b2171"/></g></g><g id="Group_1598" data-name="Group 1598"><g id="Group_1597" data-name="Group 1597"><path id="Path_827" data-name="Path 827" d="M8.444 0A8.514 8.514 0 000 8.564a8.514 8.514 0 008.444 8.564 8.514 8.514 0 008.444-8.564A8.514 8.514 0 008.444 0zm0 15.8a7.238 7.238 0 010-14.475 7.238 7.238 0 010 14.475z" fill="#2b2171"/></g></g></svg>