<svg xmlns="http://www.w3.org/2000/svg" width="170.765" height="117.946"><g id="Group_2240" data-name="Group 2240" transform="translate(4720.516 877.743)"><g id="Group_1800" data-name="Group 1800" transform="translate(-4720.516 -877.743)"><path id="Path_1022" data-name="Path 1022" d="M1456.654 365.74h-6.508a10.257 10.257 0 00-1.226-.2 48.612 48.612 0 01-14.193-2.742 27.011 27.011 0 01-10.823-6.647c-3.593-3.809-4.96-8.238-3.477-13.361a21.267 21.267 0 015.092-8.422 51.037 51.037 0 0111.32-8.907c.36-.219.7-.478 1.1-.757-.207-.136-.277-.191-.355-.231-.242-.123-.486-.239-.729-.357a31.519 31.519 0 01-9.759-6.874 14.635 14.635 0 01-4.184-10.98 16.315 16.315 0 012.494-7.726c4.027-6.542 9.907-10.721 17.1-13.13a21.24 21.24 0 0111.636-.843c5.905 1.351 9.4 5.264 11.3 10.821q.148.434.3.867a7.452 7.452 0 001.069-2.154c1.947-6.371 3.869-12.749 5.811-19.122 1.633-5.355 3.456-10.628 6.463-15.413 4.391-6.988 10.76-10.738 18.9-11.55a45.6 45.6 0 0113.555.717 28.874 28.874 0 0116.013 8.8 46.228 46.228 0 018.394 13.5c2.4 5.668 4.6 11.424 6.884 17.141.157.393.348.774.577 1.28.354-.454.594-.76.831-1.066a36.813 36.813 0 0110.16-9.509c5.125-3.041 10.5-3.849 16.153-1.616a22.959 22.959 0 018.724 6.268c6.467 7.26 9.735 15.907 10.916 25.441.136 1.1.267 2.193.4 3.288v4.517c-.073.438-.152.876-.214 1.315-.345 2.434-.526 4.9-1.055 7.3-2.444 11.065-9.084 18.912-18.939 24.19-8.488 4.546-17.709 6.73-27.139 8.143-4.157.623-8.342 1.079-12.525 1.5-4.217.421-8.446.721-12.672 1.036-3.809.285-7.629.445-11.431.795-4.877.448-9.741 1.03-14.611 1.554-5.765.619-11.523 1.331-17.3 1.83-5.691.493-11.4.769-17.1 1.147a9.519 9.519 0 00-.952.157z" transform="translate(-1419.836 -247.794)" fill="#e6007e"/></g></g></svg>