<svg xmlns="http://www.w3.org/2000/svg" width="165.434" height="116.373"><path id="Path_15716" data-name="Path 15716" d="M592.681 219.339c23.905-38.809 42.625 5.418 42.625 23.867 0 3.994-12.023 31.545-14.766 35.4-8.149 11.439-23.619 8.2-35.642 9.557-38.01 4.287-80.633 20.157-106.434-15.475-3.484-4.81-8.593-11.327-8.593-17.53 0-16.711 20.989-6.374 27.527-1.013l.214-.787a115.683 115.683 0 01-3.241-28.168c0-17.447 27-11.6 30.595 1.013 8.144-16.305 8.192-47.181 33.19-47.181 11.379 0 39.295 30.424 34.523 40.321" transform="translate(-469.872 -179.018)" fill="#f9a000" fill-rule="evenodd"/></svg>