<svg xmlns="http://www.w3.org/2000/svg" width="1016.778" height="807.333"><g id="Group_2230" data-name="Group 2230" transform="rotate(165.02 471.978 357.587)" opacity=".229"><path id="Path_1019" data-name="Path 1019" d="M231.539 601.918l-21.689-.248c-2.763-.4-5.517-.971-8.29-1.169-21.269-1.511-42.054-5.394-61.875-13.5-31.538-12.892-54.41-33.716-64.067-66.023-6.844-22.9-5.2-45.637 1.274-68.035 11.742-40.621 35.973-73.654 66.843-102.592 1.259-1.183 2.393-2.488 3.689-3.841a16.671 16.671 0 00-1.676-1.068c-1.292-.568-2.6-1.1-3.911-1.624C109.892 331.091 79 316.466 51.715 295.53 32.6 280.864 16.36 263.918 7.96 241.421c-2.419-6.479-3.606-13.36-5.359-20.055l-.151-12.659a12.915 12.915 0 001.018-2.907 83.336 83.336 0 0111.5-34.283c17.976-30.692 44.883-51.954 77.646-67.068 19.273-8.89 38.9-9.219 59.3-2.564 27.361 8.928 51.58 23.062 73.4 41.17 18.816 15.611 35 33.178 43.272 56.209.057.162.539.192.929.32a3.651 3.651 0 00.719-1.008c2.419-8.5 4.981-16.959 7.174-25.514 19.632-76.6 67.522-129.584 143.908-158.207C446.035 5.591 472.1 2.6 498.771 8.036c35.118 7.158 59.155 27.684 74.064 58.576 13.454 27.883 16.658 57.444 16.725 87.43.01 3.952 2.1 5.578 5.855 4.069a36.553 36.553 0 003.3-1.663c28.842-15.149 59.533-25 92.852-26.216 32.74-1.2 63.933 5.938 92.077 22.841 64.657 38.827 97.335 96.8 108.994 166.913.909 5.474 1.574 10.98 2.355 16.47l.248 20.8a17.247 17.247 0 00-.937 3.855c-.2 18.07-8.095 33.017-19.772 46.289-17.1 19.436-38.753 32.744-63.46 41.818a116.593 116.593 0 01-61.284 5.773c-18.364-3.186-36-8.687-53.5-14.819-17.787-6.23-35.408-13.024-53.445-18.438-18.245-5.473-29.321-.245-37.576 15.9a95.121 95.121 0 00-4.374 9.87c-4.318 11.511-8.146 23.209-12.833 34.57-7.512 18.215-18.522 34.11-37.456 42.847-29.379 13.564-59.873 14.689-90.509 1.965-28.985-12.035-51.435-31.992-69.956-56.283-3.469-4.55-5.021-4.867-9.249-1.157a29.154 29.154 0 00-5.577 6.526c-3.068 5-5.966 10.119-8.567 15.364-9.422 18.991-18.64 38.072-31.428 55.264-21.3 28.63-49.272 47.418-86.244 53.04-5.823.885-11.69 1.525-17.535 2.278z" fill="#fff"/></g></svg>