<svg xmlns="http://www.w3.org/2000/svg" width="56.71" height="56.71"><path id="download-solid" d="M23.925 0h8.861a2.652 2.652 0 012.658 2.658v18.608h9.714a2.211 2.211 0 011.562 3.777L29.872 41.9a2.146 2.146 0 01-3.024 0L9.98 25.043a2.211 2.211 0 011.562-3.777h9.725V2.658A2.652 2.652 0 0123.925 0zM56.71 41.646v12.406a2.652 2.652 0 01-2.658 2.658H2.658A2.652 2.652 0 010 54.052V41.646a2.652 2.652 0 012.658-2.658h16.249l5.427 5.427a5.676 5.676 0 008.041 0l5.425-5.427h16.252a2.652 2.652 0 012.658 2.658zm-13.734 9.747a2.215 2.215 0 10-2.215 2.215 2.222 2.222 0 002.215-2.215zm7.089 0a2.215 2.215 0 10-2.215 2.215 2.222 2.222 0 002.214-2.215z" fill="#e11b7e" opacity=".739"/></svg>