<svg version="1.1" id="Layer_1" xmlns="http://www.w3.org/2000/svg" x="0" y="0" viewBox="0 0 20 18.4" xml:space="preserve"><style>.st0{fill:#fff}</style><g id="Layer_2_1_"><g id="Layer_1-2"><g id="Group_2426"><g id="Group_2419"><g id="Group_61"><g id="Group_60"><path id="Path_9" class="st0" d="M19.3 10.7c-.4 0-.8.3-.8.8v4.6c0 .4-.3.8-.8.8H2.3c-.4 0-.8-.3-.8-.8v-4.6c0-.4-.3-.8-.8-.8-.4 0-.8.3-.8.8v4.6c0 1.3 1 2.3 2.3 2.3h15.4c1.3 0 2.3-1 2.3-2.3v-4.6c.2-.4-.2-.8-.6-.8z"/></g></g><g id="Group_63"><g id="Group_62"><path id="Path_10" class="st0" d="M14.4 10.2c-.3-.3-.8-.3-1.1 0l-2.5 2.5V.8c0-.5-.4-.8-.8-.8s-.7.3-.8.8v11.9l-2.5-2.5c-.3-.3-.8-.3-1.1 0s-.3.8 0 1.1l3.9 3.9c.3.3.8.3 1.1 0l3.9-3.9c.2-.3.2-.8-.1-1.1z"/></g></g></g></g></g></g></svg>