<svg xmlns="http://www.w3.org/2000/svg" viewBox="0 0 20.05 18.42"><defs><style>.cls-1{fill:#e5087e}</style></defs><g id="Layer_2" data-name="Layer 2"><g id="Layer_1-2" data-name="Layer 1"><g id="Group_2426" data-name="Group 2426"><g id="Group_2419" data-name="Group 2419"><g id="Group_61" data-name="Group 61"><g id="Group_60" data-name="Group 60"><path id="Path_9" data-name="Path 9" class="cls-1" d="M19.27 10.71a.78.78 0 00-.77.77v4.63a.77.77 0 01-.77.77H2.31a.77.77 0 01-.77-.77v-4.62a.77.77 0 00-1.54 0v4.62a2.31 2.31 0 002.31 2.31h15.42a2.31 2.31 0 002.32-2.31v-4.62a.77.77 0 00-.77-.78z"/></g></g><g id="Group_63" data-name="Group 63"><g id="Group_62" data-name="Group 62"><path id="Path_10" data-name="Path 10" class="cls-1" d="M14.4 10.17a.77.77 0 00-1.07 0l-2.54 2.54V.77a.77.77 0 10-1.54 0v11.94l-2.54-2.54a.77.77 0 00-1.09 1.09l3.86 3.86a.77.77 0 001.09 0l3.85-3.86a.77.77 0 000-1.09z"/></g></g></g></g></g></g></svg>