<svg xmlns="http://www.w3.org/2000/svg" width="339.952" height="238.506"><g id="Group_1737" data-name="Group 1737" transform="translate(520.74 -311.593)" opacity=".492" style="isolation:isolate"><path id="Path_980" data-name="Path 980" d="M-520.74 401.643v-8.267c1.256-3.914 2.036-8.066 3.854-11.7 6.579-13.153 17.314-22.069 30.238-28.654 7.968-4.06 16.02-4.278 24.358-1.339a83.95 83.95 0 0129.524 18.067c5.706 5.312 10.608 11.239 13.324 18.7.083.229.324.4.733.883 1.033-3.837 1.981-7.351 2.926-10.867 8.106-30.168 26.568-51.254 55.589-62.887a52.19 52.19 0 0128.411-3.283c14.63 2.464 24.314 11.169 30.013 24.558 4.447 10.445 5.558 21.493 5.485 32.718-.017 2.7.373 2.826 2.806 1.713 5.654-2.587 11.218-5.513 17.1-7.432 20.606-6.719 40.207-4.519 58.32 7.782 11.559 7.851 20.1 18.389 26.475 30.72a94.3 94.3 0 0110.715 47.828 30.063 30.063 0 01-4.627 15.278 51.719 51.719 0 01-15.847 15.421c-13.221 8.633-27.385 11.887-42.8 7.139-7.033-2.167-13.946-4.723-20.937-7.03-4.939-1.63-9.861-3.364-14.9-4.632a8.648 8.648 0 00-9.845 3.958 47.308 47.308 0 00-3.941 8.023c-1.923 4.772-3.416 9.724-5.468 14.436-3.343 7.678-8.553 13.781-16.565 16.846-10.455 4-21.042 4.471-31.526.04-11.191-4.729-19.84-12.588-26.922-22.3-1.219-1.672-1.73-1.786-3.218-.37a13.2 13.2 0 00-2.232 2.79c-1.161 1.954-2.167 4-3.251 6-3.7 6.837-7.021 13.925-11.21 20.452-7.5 11.689-17.966 19.623-31.778 22.648-2.216.486-4.466.818-6.7 1.221h-14.025c-.707-.1-1.411-.244-2.123-.309a71.742 71.742 0 01-21.779-5.1c-12.21-5.2-20.846-13.7-24.17-26.863-2.275-9.011-1.44-17.961 1.148-26.78 4.14-14.1 11.961-26.032 21.916-36.673 1.658-1.772 3.376-3.488 5.082-5.245-.281-.258-.39-.42-.542-.487a66.47 66.47 0 00-2.148-.912 148.959 148.959 0 01-27.713-14.355 72.77 72.77 0 01-14.575-12.729 40.2 40.2 0 01-9.175-19.007z" fill="#3d7aa2"/></g></svg>