<svg id="Layer_1" data-name="Layer 1" xmlns="http://www.w3.org/2000/svg" viewBox="0 0 1366 382"><g id="Group_2465" data-name="Group 2465"><path id="Rectangle_861" data-name="Rectangle 861" fill="#fff" d="M0 0h1366v382H0z"/><path id="Subtraction_5" data-name="Subtraction 5" d="M685.53 382c-66.36 0-132.65-.65-197-1.93-62.69-1.25-124.19-3.11-182.78-5.53-57.54-2.38-112.8-5.32-164.25-8.74-51-3.38-98.58-7.27-141.46-11.53V.4H1366v354.37c-5.18.5-10.43 1-15.59 1.49-42.56 4-89.38 7.59-139.16 10.73-50.25 3.17-104 5.9-159.72 8.1-56.71 2.25-116.09 4-176.5 5.12-61.97 1.19-125.73 1.79-189.5 1.79z" fill="#34688e"/></g></svg>