<svg xmlns="http://www.w3.org/2000/svg" width="290.799" height="225.504"><g id="Group_1738" data-name="Group 1738" opacity=".492"><path id="Path_982" data-name="Path 982" d="M-668.008 65.021h5.541c.435-.113.865-.264 1.306-.332 2.221-.343 4.485-.5 6.661-1.021 13.366-3.212 22.965-11.09 28.777-23.543a54.057 54.057 0 004.679-19.9 79.883 79.883 0 00-.948-17.306 126.292 126.292 0 00-6.331-23.666c-.992-2.7-1.244-2.06 1.191-3.692 6.917-4.637 13.115-10.017 17.7-17.074a35.433 35.433 0 005.942-18.158 36.685 36.685 0 00-4.158-18.212 52.775 52.775 0 00-20.445-21.6c-7-4.214-14.508-6.838-22.837-6.627-8.2.209-14.722 3.518-19.451 10.252a35.224 35.224 0 00-5.224 12.693c-.107.471-.256.932-.385 1.4a.722.722 0 01-.39-.555 82.329 82.329 0 00-2.2-13.146c-6.159-24.419-20.057-43.013-42.05-55.4a73.7 73.7 0 00-32.879-9.545 52.321 52.321 0 00-16.73 1.813c-12.556 3.51-21.68 11.037-26.816 23.136a49.986 49.986 0 00-3.605 15.314 75.419 75.419 0 00.56 17.448 1.5 1.5 0 01-.7 1.673 2.38 2.38 0 01-2.585.342 31.926 31.926 0 01-3.973-1.989c-4.651-3.094-9.223-6.306-13.853-9.432a84.2 84.2 0 00-17.536-9.471 34.453 34.453 0 00-19.162-1.8c-7.143 1.436-12.73 5.426-17.312 10.955a59.741 59.741 0 00-9.631 17.4c-3.968 10.547-6.073 21.537-7.449 32.675a222.559 222.559 0 00-1.659 22.507c-.02.9-.2 1.8-.3 2.694v10.771a20.962 20.962 0 01.352 2.23 56.925 56.925 0 002.523 14.312c4.858 15.224 15.445 21.107 28.4 22.117a76.437 76.437 0 0023.9-2.311c6.309-1.519 12.568-3.246 18.848-4.887a15.252 15.252 0 017.729-.341 11.459 11.459 0 017.87 6.983 67.841 67.841 0 012.812 7.939c1.514 5.041 2.687 10.185 4.894 15a27.614 27.614 0 0017.1 15.527A51.739 51.739 0 00-761.2 52.4a33.576 33.576 0 0010.877-2.429 51.757 51.757 0 0015.845-10.4 133.27 133.27 0 0012.778-13.93c.271-.33.582-.628.883-.951a2.229 2.229 0 01.309.344c.505 1.062.988 2.136 1.5 3.193 5.865 12.036 14.2 21.878 25.787 28.778a54.247 54.247 0 0020.839 7.37c1.465.192 2.918.425 4.374.646z" transform="translate(894.264 160.483)" fill="#3d7aa2"/></g></svg>