<svg xmlns="http://www.w3.org/2000/svg" width="16.514" height="16.514"><g id="_001-full-screen" data-name="001-full-screen" transform="translate(.5 .5)"><g id="Group_260" data-name="Group 260"><g id="Group_259" data-name="Group 259" fill="#f7f7f7" stroke="#f7f7f7" stroke-width="1"><path id="Path_23" data-name="Path 23" d="M3.878.97V0H.485A.485.485 0 000 .485v3.393h.97V1.653l4.5 4.5.684-.684L1.653.97z"/><path id="Path_24" data-name="Path 24" d="M314.472 0h-3.394v.97h2.222l-4.5 4.5.684.684 4.5-4.5v2.224h.97V.485a.485.485 0 00-.482-.485z" transform="translate(-299.443)"/><path id="Path_25" data-name="Path 25" d="M313.987 313.3l-4.5-4.5-.684.684 4.5 4.5h-2.225v.97h3.394a.485.485 0 00.485-.485v-3.394h-.97z" transform="translate(-299.443 -299.443)"/><path id="Path_26" data-name="Path 26" d="M5.473 308.64l-4.5 4.509v-2.225H0v3.394a.485.485 0 00.485.485h3.393v-.97H1.653l4.5-4.5z" transform="translate(0 -299.288)"/></g></g></g></svg>