<svg xmlns="http://www.w3.org/2000/svg" width="218.45" height="170.022"><path id="Path_15910" data-name="Path 15910" d="M169.965 0h4.163c.327.085.649.2.981.25 1.668.259 3.369.376 5 .77a30.709 30.709 0 0121.621 17.751 40.885 40.885 0 013.515 15.007 60.471 60.471 0 01-.713 13.048 95.5 95.5 0 01-4.756 17.844c-.745 2.037-.934 1.553.895 2.784a45.6 45.6 0 0113.3 12.873 26.78 26.78 0 014.464 13.691 27.739 27.739 0 01-3.123 13.731 39.727 39.727 0 01-15.358 16.286c-5.262 3.177-10.9 5.156-17.155 5a17.4 17.4 0 01-14.611-7.73 26.607 26.607 0 01-3.924-9.57c-.08-.355-.192-.7-.289-1.053a.545.545 0 00-.293.418 62.3 62.3 0 01-1.654 9.912c-4.627 18.411-15.068 32.431-31.588 41.767a55.212 55.212 0 01-24.7 7.2 39.165 39.165 0 01-12.575-1.379c-9.433-2.646-16.286-8.322-20.145-17.444a37.8 37.8 0 01-2.708-11.546 57.071 57.071 0 01.427-13.161 1.135 1.135 0 00-.529-1.261 1.783 1.783 0 00-1.942-.258 23.953 23.953 0 00-2.984 1.5c-3.494 2.333-6.929 4.755-10.407 7.112a63.179 63.179 0 01-13.177 7.144 25.793 25.793 0 01-14.395 1.359c-5.366-1.083-9.563-4.091-13.005-8.26a45.084 45.084 0 01-7.23-13.116 106.842 106.842 0 01-5.6-24.636 168.432 168.432 0 01-1.242-16.97C.214 78.385.079 77.709 0 77.032v-8.121a15.876 15.876 0 00.264-1.681 43.069 43.069 0 011.895-10.791c3.649-11.478 11.6-15.914 21.332-16.676a57.218 57.218 0 0117.957 1.743c4.739 1.146 9.441 2.447 14.159 3.685a11.418 11.418 0 005.806.257 8.618 8.618 0 005.912-5.265 51.288 51.288 0 002.113-5.983c1.138-3.8 2.018-7.679 3.676-11.312a20.772 20.772 0 0112.848-11.711 38.732 38.732 0 0114-1.662 25.142 25.142 0 018.171 1.832 38.868 38.868 0 0111.9 7.844 100.338 100.338 0 019.6 10.5c.2.249.437.474.663.717a1.69 1.69 0 00.232-.259c.379-.8.742-1.61 1.129-2.407 4.406-9.075 10.664-16.5 19.371-21.7A40.655 40.655 0 01166.683.487c1.096-.145 2.188-.324 3.282-.487z" transform="rotate(180 109.225 85.011)" fill="#473f84"/></svg>