<svg id="pin_2_" data-name="pin (2)" xmlns="http://www.w3.org/2000/svg" width="14.563" height="19.711"><g id="Group_1600" data-name="Group 1600"><g id="Group_1599" data-name="Group 1599" fill="#2b2171"><path id="Path_828" data-name="Path 828" d="M55.361 0a7.289 7.289 0 00-7.281 7.281 8.4 8.4 0 00.618 2.8 11.743 11.743 0 00.842 1.574l4.992 7.564a.95.95 0 001.659 0l4.993-7.565a11.693 11.693 0 00.842-1.574 8.4 8.4 0 00.617-2.8A7.289 7.289 0 0055.361 0zm5.874 9.752a10.759 10.759 0 01-.767 1.435l-4.993 7.565c-.1.149-.13.149-.228 0l-4.993-7.565a10.765 10.765 0 01-.767-1.435 7.626 7.626 0 01-.551-2.471 6.425 6.425 0 0112.849 0 7.632 7.632 0 01-.549 2.471z" transform="translate(-48.08)"/><path id="Path_829" data-name="Path 829" d="M115.935 64.008a3.855 3.855 0 103.855 3.855 3.859 3.859 0 00-3.855-3.855zm0 6.853a3 3 0 113-3 3 3 0 01-3 3z" transform="translate(-108.654 -60.581)"/></g></g></svg>