<svg xmlns="http://www.w3.org/2000/svg" width="362.156" height="250.139"><g id="Group_2352" data-name="Group 2352" transform="translate(4720.516 877.743)"><g id="Group_1800" data-name="Group 1800" transform="translate(-4720.516 -877.743)"><path id="Path_1022" data-name="Path 1022" d="M1497.918 497.932h-13.8a21.746 21.746 0 00-2.6-.434 103.1 103.1 0 01-30.1-5.814c-8.617-3.106-16.582-7.344-22.953-14.1-7.621-8.078-10.52-17.471-7.375-28.336 1.994-6.891 6-12.639 10.8-17.86 6.976-7.592 15.24-13.562 24.006-18.889.765-.464 1.476-1.015 2.328-1.605-.438-.288-.587-.4-.753-.489-.512-.26-1.03-.506-1.545-.758-7.681-3.748-14.876-8.2-20.7-14.578-6.01-6.593-9.372-14.222-8.873-23.286a34.6 34.6 0 015.29-16.386c8.54-13.875 21.011-22.736 36.272-27.845 8.035-2.691 16.3-3.7 24.677-1.789 12.524 2.865 19.943 11.165 23.974 22.949q.315.921.632 1.84a15.8 15.8 0 002.267-4.568c4.13-13.511 8.2-27.039 12.325-40.553 3.464-11.357 7.329-22.54 13.706-32.688 9.312-14.82 22.819-22.772 40.092-24.5a96.71 96.71 0 0128.748 1.521c13.256 2.663 24.722 8.639 33.96 18.667 7.756 8.422 13.379 18.2 17.8 28.638 5.092 12.021 9.747 24.229 14.6 36.351.334.834.737 1.641 1.223 2.714.751-.963 1.259-1.611 1.763-2.261 6.1-7.879 12.891-15.031 21.547-20.166 10.87-6.449 22.267-8.162 34.257-3.427a48.693 48.693 0 0118.5 13.292c13.714 15.4 20.647 33.736 23.15 53.955.289 2.324.567 4.65.852 6.974v9.58c-.154.93-.322 1.857-.453 2.789-.732 5.162-1.116 10.4-2.238 15.474-5.183 23.466-19.265 40.108-40.166 51.3-18 9.641-37.558 14.272-57.556 17.27-8.816 1.322-17.692 2.288-26.563 3.175-8.943.892-17.912 1.529-26.875 2.2-8.077.6-16.179.944-24.242 1.685-10.343.95-20.659 2.185-30.987 3.3-12.227 1.313-24.438 2.822-36.688 3.881-12.068 1.045-24.176 1.631-36.266 2.433a20.227 20.227 0 00-2.036.344z" transform="translate(-1419.836 -247.794)" fill="#f8b9db"/></g></g></svg>